<svg width="1104" height="564" viewBox="0 0 1104 564" fill="none" xmlns="http://www.w3.org/2000/svg">
<path d="M400.165 129H309.547V419.145H400.165C489.121 419.145 543.991 363.029 543.991 274.073C543.991 184.701 489.121 129 400.165 129ZM376.887 355.962V192.184H399.334C446.722 192.184 472.078 225.854 472.078 274.073C472.078 322.292 446.722 355.962 399.334 355.962H376.887Z" fill="#191919"/>
<path d="M634.022 190.521C612.406 190.521 590.375 194.678 570.007 202.576V258.277C583.309 249.548 602.014 243.728 620.72 243.728C648.155 243.728 662.704 256.198 662.704 279.477V284.88C651.065 276.983 636.1 272.826 619.889 272.826C577.073 272.826 548.807 301.508 548.807 347.233C548.807 392.958 576.658 421.224 619.473 421.224C638.594 421.224 655.637 416.236 667.276 405.844V419.145H726.719V278.23C726.719 221.281 693.049 190.521 634.022 190.521ZM639.01 374.668C623.214 374.668 611.991 363.028 611.991 345.986C611.991 328.943 623.214 317.719 639.01 317.719C654.806 317.719 665.198 328.943 665.198 345.986C665.198 363.444 654.806 374.668 639.01 374.668Z" fill="#191919"/>
<path d="M829.957 334.762L793.377 193.846H725.205L793.377 414.989L773.84 475.262H840.349L934.709 193.846H867.784L829.957 334.762Z" fill="#191919"/>
<path d="M980.291 422.471C1027.68 422.471 1058.02 396.699 1058.02 352.636C1058.02 328.527 1048.88 311.068 1026.43 290.284L1006.06 270.747C998.996 263.681 996.087 259.524 996.087 254.12C996.087 247.053 1001.07 243.312 1010.22 243.312C1018.95 243.312 1029.76 246.638 1041.81 252.873V195.093C1029.34 192.184 1017.29 190.521 1005.65 190.521C961.169 190.521 933.319 213.799 933.319 255.367C933.319 276.151 939.97 293.194 958.675 311.9L976.134 329.358C985.695 338.919 989.02 344.323 989.02 351.389C989.02 360.119 983.2 364.276 972.808 364.276C961.169 364.276 949.115 359.287 933.734 348.48V414.989C948.699 419.977 964.91 422.471 980.291 422.471Z" fill="#191919"/>
<path d="M102.262 301.619L159.571 199.429L215.5 301.619H102.262Z" fill="white"/>
<path d="M127.809 256.048L159.57 198.738L190.642 256.048H127.809Z" fill="#191919"/>
<path d="M120.214 129L159.571 198.738L102.428 301.619L9.04688 129H120.214Z" fill="#6F6CF4"/>
<path d="M197.546 129L159.57 198.738L215.371 301.619L310.094 129H197.546Z" fill="#39E9E0"/>
<path d="M102.262 301.619V419H215.5V301.619H102.262Z" fill="#F7DB07"/>
</svg>
